<svg width="71" height="70" viewBox="0 0 71 70" fill="none" xmlns="http://www.w3.org/2000/svg">
<path d="M69.817 34.4603C69.5261 15.1299 53.8994 -0.292106 34.9272 0.00419918C15.9481 0.300505 0.806389 16.2163 1.09731 35.5397C1.38824 54.8701 17.0148 70.2921 35.987 69.9958C54.9662 69.6995 70.1148 53.7907 69.817 34.4603Z" fill="url(#paint0_linear_45_1080)"/>
<path d="M34.9662 63C20.0544 63 7.9659 50.6878 7.9659 35.5C7.9659 20.3122 20.0544 8 34.9662 8C49.8781 8 61.9666 20.3122 61.9666 35.5C61.9666 50.6878 49.8781 63 34.9662 63Z" fill="#B897FD"/>
<path d="M33.6463 22.8915L33.6764 21L37.2638 21.0503L37.2337 22.9417C40.3351 23.5676 41.8933 25.7698 41.8332 29.2238L41.8182 30.0233L37.6696 29.9639L37.6896 28.9085C37.7197 27.0901 36.9331 26.3866 35.5402 26.3683C34.1473 26.35 33.3357 27.0262 33.3056 28.8445C33.2154 34.0803 41.7831 34.455 41.6628 41.7239C41.6027 45.1778 39.9343 47.3708 36.8128 47.9099L36.7828 49.7648L33.1954 49.7146L33.2254 47.8597C30.084 47.2338 28.5308 44.9951 28.5859 41.5411L28.6159 39.7958L32.7645 39.8552L32.7294 41.8563C32.6994 43.6747 33.5662 44.3417 34.959 44.36C36.3569 44.3783 37.2437 43.7387 37.2738 41.9203C37.364 36.6845 28.7963 36.3099 28.9166 29.041C28.9767 25.6281 30.57 23.4671 33.6463 22.8915Z" fill="#3B3B3B"/>
<defs>
<linearGradient id="paint0_linear_45_1080" x1="14.9575" y1="-5.26542e-07" x2="72.8689" y2="68.2318" gradientUnits="userSpaceOnUse">
<stop stop-color="#BA99FD"/>
<stop offset="1" stop-color="#CEC0FD"/>
</linearGradient>
</defs>
</svg>
