<svg width="71" height="70" viewBox="0 0 71 70" fill="none" xmlns="http://www.w3.org/2000/svg">
<path d="M64.7439 64.1766H6.0686C2.94139 64.1766 0.40625 61.8694 0.40625 59.0235V14.5598C0.40625 11.7139 2.94139 9.40674 6.0686 9.40674H64.7439C67.8711 9.40674 70.4062 11.7139 70.4062 14.5598V59.0235C70.4062 61.8694 67.8711 64.1766 64.7439 64.1766Z" fill="#F8D57E"/>
<path d="M63.4329 62.9576H7.37456C4.38677 62.9576 1.9646 60.7532 1.9646 58.0342V15.5537C1.9646 12.8347 4.38662 10.6304 7.37456 10.6304H63.4327C66.4205 10.6304 68.8427 12.8345 68.8427 15.5537V58.0343C68.8428 60.7534 66.4207 62.9576 63.4329 62.9576Z" fill="#E1C379"/>
<path d="M66.6101 23.796L52.4966 1.54965C51.5566 0.067757 49.4743 -0.440016 47.8459 0.415706L3.3479 23.796H66.6101Z" fill="#009379"/>
<path fill-rule="evenodd" clip-rule="evenodd" d="M70.4062 24.8179V35.3488V41.6907V59.0245C70.4062 61.8705 67.8711 64.1776 64.7439 64.1776H6.06875C2.94139 64.1776 0.40625 61.8703 0.40625 59.0244V41.6907V35.3488V24.8179C0.40625 22.6883 2.30321 20.9619 4.64336 20.9619H66.1691C68.5093 20.9619 70.4062 22.6883 70.4062 24.8179Z" fill="#FF6250"/>
<path d="M55.071 69.9614L5.93249 64.7677C2.78245 64.4347 0.40625 62.0067 0.40625 59.1207V14.1826C0.40625 15.1484 1.20142 15.9608 2.25529 16.0722L56.5122 21.807C59.6622 22.1401 62.0384 24.568 62.0384 27.454V64.3145C62.0384 67.714 58.7816 70.3538 55.071 69.9614Z" fill="#F8D57E"/>
<path d="M4.81042 21.1906C4.76926 21.1906 4.7275 21.1884 4.68558 21.1843L2.43692 20.9593C1.81587 20.8971 1.36773 20.3888 1.43609 19.8237C1.50444 19.2587 2.06345 18.8512 2.6839 18.9129L4.93256 19.1379C5.55361 19.2002 6.00175 19.7085 5.9334 20.2735C5.8697 20.8006 5.37965 21.1906 4.81042 21.1906Z" fill="#F8D57E"/>
<path d="M51.0151 66.5614C50.9676 66.5614 50.9193 66.5585 50.8709 66.5531L46.5005 66.0474C45.881 65.9757 45.4423 65.4603 45.5212 64.8962C45.6 64.3324 46.1663 63.9355 46.7861 64.0049L51.1565 64.5106C51.776 64.5823 52.2148 65.0977 52.1358 65.6618C52.063 66.1816 51.5762 66.5614 51.0151 66.5614ZM55.3168 66.0519C54.8926 66.0519 54.4856 65.8335 54.2928 65.4608C54.0265 64.9466 54.2688 64.3332 54.834 64.091C55.9816 63.5989 56.8447 62.7826 57.2021 61.8513C57.408 61.3148 58.0534 61.0318 58.6429 61.2189C59.2326 61.4063 59.5438 61.9934 59.3379 62.5301C58.7735 64.0009 57.5165 65.2168 55.7981 65.9534C55.6424 66.0201 55.4785 66.0519 55.3168 66.0519ZM42.2745 65.55C42.2271 65.55 42.1787 65.5471 42.1303 65.5416L37.76 65.0359C37.1404 64.9643 36.7016 64.4488 36.7806 63.8847C36.8595 63.3209 37.4257 62.9239 38.0455 62.9935L42.4159 63.4992C43.0354 63.5708 43.4743 64.0863 43.3953 64.6504C43.3224 65.17 42.8353 65.55 42.2745 65.55ZM33.534 64.5384C33.4865 64.5384 33.4383 64.5355 33.3897 64.53L29.0194 64.0243C28.3998 63.9527 27.961 63.4373 28.04 62.8732C28.1189 62.3093 28.6853 61.9104 29.305 61.9819L33.6753 62.4876C34.2949 62.5592 34.7337 63.0747 34.6547 63.6388C34.5818 64.1584 34.0948 64.5384 33.534 64.5384ZM24.7931 63.5268C24.7456 63.5268 24.6974 63.5239 24.6489 63.5185L20.2784 63.0126C19.6587 62.9408 19.22 62.4255 19.299 61.8614C19.3779 61.2975 19.9444 60.9004 20.5639 60.9702L24.9345 61.476C25.5542 61.5478 25.9928 62.0631 25.9138 62.6272C25.8412 63.1471 25.3542 63.5268 24.7931 63.5268ZM16.0525 62.5152C16.005 62.5152 15.9568 62.5124 15.9083 62.5069L11.5378 62.001C10.9181 61.9292 10.4794 61.414 10.5584 60.8499C10.6373 60.2859 11.2038 59.8887 11.8234 59.9586L16.1939 60.4644C16.8136 60.5362 17.2523 61.0515 17.1732 61.6156C17.1005 62.1356 16.6136 62.5152 16.0525 62.5152ZM58.5238 59.2374C57.899 59.2374 57.3927 58.7767 57.3927 58.208V54.1988C57.3927 53.6301 57.899 53.1694 58.5238 53.1694C59.1486 53.1694 59.6549 53.6301 59.6549 54.1988V58.208C59.655 58.7767 59.1487 59.2374 58.5238 59.2374ZM58.5238 51.219C57.899 51.219 57.3927 50.7582 57.3927 50.1896V46.1803C57.3927 45.6117 57.899 45.151 58.5238 45.151C59.1486 45.151 59.6549 45.6117 59.6549 46.1803V50.1896C59.655 50.7581 59.1487 51.219 58.5238 51.219ZM58.5238 43.2004C57.899 43.2004 57.3927 42.7397 57.3927 42.1711V38.1618C57.3927 37.5932 57.899 37.1324 58.5238 37.1324C59.1486 37.1324 59.6549 37.5932 59.6549 38.1618V42.1711C59.655 42.7395 59.1487 43.2004 58.5238 43.2004ZM58.5238 35.1819C57.899 35.1819 57.3927 34.7211 57.3927 34.1525V30.1432C57.3927 29.5746 57.899 29.1139 58.5238 29.1139C59.1486 29.1139 59.6549 29.5746 59.6549 30.1432V34.1525C59.655 34.721 59.1487 35.1819 58.5238 35.1819ZM56.9419 27.5742C56.6626 27.5742 56.3827 27.4805 56.1641 27.292C55.3257 26.569 54.1621 26.1084 52.8874 25.9948L52.8575 25.9919C52.2363 25.9311 51.787 25.4234 51.854 24.8582C51.9208 24.2929 52.4785 23.8838 53.0997 23.945L53.1189 23.9469C54.8807 24.104 56.5185 24.7616 57.7202 25.7975C58.1737 26.1885 58.193 26.8401 57.7633 27.2529C57.5407 27.4663 57.2416 27.5742 56.9419 27.5742ZM48.6006 25.5597C48.5594 25.5597 48.5177 25.5576 48.4758 25.5534L44.0967 25.1153C43.4758 25.0531 43.0275 24.5447 43.0958 23.9797C43.1642 23.4146 43.7232 23.0079 44.3437 23.0689L48.7227 23.507C49.3436 23.5693 49.7919 24.0776 49.7236 24.6426C49.66 25.1695 49.1698 25.5597 48.6006 25.5597ZM39.8426 24.6834C39.8014 24.6834 39.7597 24.6812 39.7178 24.6771L35.3385 24.2389C34.7176 24.1767 34.2693 23.6684 34.3377 23.1033C34.4059 22.5381 34.9658 22.131 35.5855 22.1925L39.9647 22.6307C40.5856 22.6929 41.0339 23.2012 40.9656 23.7663C40.9019 24.2933 40.4118 24.6834 39.8426 24.6834ZM31.0841 23.8071C31.043 23.8071 31.0012 23.805 30.9593 23.8009L26.5802 23.3627C25.9593 23.3005 25.511 22.7921 25.5794 22.2271C25.6476 21.662 26.2063 21.2549 26.8272 21.3163L31.2063 21.7544C31.8272 21.8167 32.2755 22.325 32.2071 22.89C32.1436 23.4169 31.6535 23.8071 31.0841 23.8071ZM22.3258 22.9309C22.2847 22.9309 22.2429 22.9287 22.201 22.9246L17.8219 22.4864C17.2009 22.4242 16.7527 21.9159 16.8211 21.3509C16.8893 20.7859 17.4474 20.3789 18.0689 20.44L22.448 20.8782C23.0689 20.9404 23.5172 21.4487 23.4488 22.0138C23.3854 22.5407 22.8952 22.9309 22.3258 22.9309ZM13.5675 22.0545C13.5264 22.0545 13.4846 22.0524 13.4427 22.0483L9.06363 21.6101C8.44273 21.5479 7.99444 21.0395 8.06279 20.4745C8.13115 19.9096 8.68941 19.5027 9.31061 19.5637L13.6897 20.0018C14.3107 20.0641 14.7589 20.5724 14.6905 21.1374C14.627 21.6643 14.1368 22.0545 13.5675 22.0545Z" fill="#F8D57E"/>
<path d="M7.3048 61.5101C7.25733 61.5101 7.20926 61.5074 7.16073 61.5018L4.91644 61.2421C4.29674 61.1705 3.85791 60.6551 3.93693 60.0911C4.01565 59.5271 4.58202 59.1282 5.20173 59.1997L7.44602 59.4593C8.06572 59.531 8.50455 60.0464 8.42552 60.6104C8.35281 61.1303 7.86576 61.5101 7.3048 61.5101Z" fill="#F8D57E"/>
<path d="M48.8597 7.66926L41.6204 11.2543C40.6774 11.7212 39.497 11.4042 38.9838 10.546C38.4708 9.68778 38.8192 8.61358 39.7622 8.14655L47.0016 4.56164C47.9446 4.09475 49.125 4.4118 49.6382 5.26998C50.1512 6.12803 49.8028 7.20237 48.8597 7.66926Z" fill="white"/>
<path d="M50.7697 51.6673C53.8323 51.6673 56.315 49.4079 56.315 46.6208C56.315 43.8336 53.8323 41.5742 50.7697 41.5742C47.7071 41.5742 45.2244 43.8336 45.2244 46.6208C45.2244 49.4079 47.7071 51.6673 50.7697 51.6673Z" fill="url(#paint0_linear_45_1081)"/>
<path d="M50.7664 50.1013C52.88 50.1013 54.5934 48.542 54.5934 46.6185C54.5934 44.695 52.88 43.1357 50.7664 43.1357C48.6528 43.1357 46.9395 44.695 46.9395 46.6185C46.9395 48.542 48.6528 50.1013 50.7664 50.1013Z" fill="url(#paint1_linear_45_1081)"/>
<defs>
<linearGradient id="paint0_linear_45_1081" x1="50.7685" y1="43.4536" x2="50.7685" y2="50.7513" gradientUnits="userSpaceOnUse">
<stop stop-color="#FF4C54"/>
<stop offset="1" stop-color="#BE3F45"/>
</linearGradient>
<linearGradient id="paint1_linear_45_1081" x1="50.7652" y1="48.8055" x2="50.7652" y2="43.7697" gradientUnits="userSpaceOnUse">
<stop stop-color="#FF4C54"/>
<stop offset="1" stop-color="#BE3F45"/>
</linearGradient>
</defs>
</svg>
