<svg width="21" height="20" viewBox="0 0 21 20" fill="none" xmlns="http://www.w3.org/2000/svg">
<path d="M9.94506 1.81699C10.3119 1.07374 11.3717 1.07374 11.7385 1.81699L13.5481 5.48347C13.6937 5.77862 13.9753 5.98319 14.301 6.03051L18.3472 6.61846C19.1674 6.73765 19.4949 7.74562 18.9014 8.32416L15.9735 11.1781C15.7379 11.4079 15.6303 11.7389 15.686 12.0632L16.3771 16.0931C16.5172 16.91 15.6598 17.533 14.9262 17.1473L11.3071 15.2446C11.0158 15.0915 10.6678 15.0915 10.3765 15.2446L6.75742 17.1473C6.02379 17.533 5.16636 16.91 5.30647 16.0931L5.99764 12.0632C6.05328 11.7389 5.94573 11.4079 5.71005 11.1781L2.78218 8.32416C2.18866 7.74562 2.51617 6.73765 3.33639 6.61846L7.3826 6.03051C7.70831 5.98319 7.98988 5.77862 8.13554 5.48347L9.94506 1.81699Z" fill="#2B2B2B"/>
</svg>
